<?xml version="1.0" encoding="utf-8"?>
<!-- Generator: Adobe Illustrator 22.0.1, SVG Export Plug-In . SVG Version: 6.00 Build 0)  -->
<svg version="1.1" id="Layer_1" xmlns="http://www.w3.org/2000/svg" xmlns:xlink="http://www.w3.org/1999/xlink" x="0px" y="0px"
	 viewBox="0 0 2834.6 2834.6" style="enable-background:new 0 0 2834.6 2834.6;" xml:space="preserve">
<style type="text/css">
	.st0{fill:#BF9552;}
</style>
<path class="st0" d="M1417.3,2409.4c-133.9,0-263.9-26.2-386.2-78c-118.1-50-224.2-121.5-315.3-212.6
	c-91.1-91.1-162.6-197.2-212.6-315.3c-51.7-122.3-78-252.3-78-386.2s26.2-263.9,78-386.2c50-118.1,121.5-224.2,212.6-315.3
	S913,553.1,1031.1,503.2c122.3-51.7,252.3-78,386.2-78s263.9,26.2,386.2,78c118.1,50,224.2,121.5,315.3,212.6
	c91.1,91.1,162.6,197.2,212.6,315.3c51.7,122.3,78,252.3,78,386.2s-26.2,263.9-78,386.2c-50,118.1-121.5,224.2-212.6,315.3
	c-91.1,91.1-197.2,162.6-315.3,212.6C1681.2,2383.2,1551.2,2409.4,1417.3,2409.4z M1417.3,501.5c-123.6,0-243.6,24.2-356.5,72
	c-109,46.1-207,112.2-291.1,196.3c-84.1,84.1-150.2,182.1-196.3,291.1c-47.7,112.9-72,232.8-72,356.5s24.2,243.6,72,356.5
	c46.1,109,112.2,207,196.3,291.1c84.1,84.1,182.1,150.2,291.1,196.3c112.9,47.7,232.8,72,356.5,72s243.6-24.2,356.5-72
	c109-46.1,207-112.2,291.1-196.3c84.1-84.1,150.2-182.1,196.3-291.1c47.7-112.9,72-232.8,72-356.5s-24.2-243.6-72-356.5
	c-46.1-109-112.2-207-196.3-291.1c-84.1-84.1-182.1-150.2-291.1-196.3C1660.9,525.7,1541,501.5,1417.3,501.5z"/>
<polygon class="st0" points="2834.6,1417.3 1757.5,1289.8 1999.3,835.4 1544.9,1077.2 1417.3,0 1289.8,1077.2 835.4,835.4 
	1077.2,1289.8 0,1417.3 1077.2,1544.9 835.4,1999.3 1289.8,1757.5 1417.3,2834.6 1544.9,1757.5 1999.3,1999.3 1757.5,1544.9 "/>
</svg>
